<?xml version="1.0" standalone="no"?><!DOCTYPE svg PUBLIC "-//W3C//DTD SVG 1.1//EN" "http://www.w3.org/Graphics/SVG/1.1/DTD/svg11.dtd"><svg t="1646734691183" class="icon" viewBox="0 0 1024 1024" version="1.1" xmlns="http://www.w3.org/2000/svg" p-id="19187" xmlns:xlink="http://www.w3.org/1999/xlink" width="14" height="14"><defs><style type="text/css"></style></defs><path d="M619.456 618.752a194.944 194.944 0 0 1-104.96-19.072 69.12 69.12 0 0 1-25.728-48.512 10.624 10.624 0 0 0-10.88-10.56 2247.68 2247.68 0 0 0-45.568 0 10.112 10.112 0 0 0-11.136 8.96c-1.728 33.408 11.52 65.856 36.16 88.512 30.72 23.936 68.032 38.016 106.944 40.256a387.008 387.008 0 0 0 121.6-5.184c30.72-5.76 58.88-20.928 80.512-43.392 24.384-30.08 31.552-70.528 19.008-107.072a89.728 89.728 0 0 0-59.008-52.608c-61.44-21.568-127.872-19.84-190.592-36.288-10.88-3.392-24.192-7.104-28.992-18.624a41.024 41.024 0 0 1 13.632-45.888 122.752 122.752 0 0 1 64.768-16.128c30.72-2.88 61.696 1.6 90.368 12.992 17.472 10.24 29.504 27.648 33.024 47.616a11.648 11.648 0 0 0 10.88 11.328c15.104 0.256 30.208 0 45.312 0.064a10.944 10.944 0 0 0 11.84-8.064 116.864 116.864 0 0 0-56.96-101.12 282.24 282.24 0 0 0-154.496-23.616 168.256 168.256 0 0 0-104.448 41.984 104.384 104.384 0 0 0-20.8 108.608c11.072 24.704 32.448 43.328 58.432 50.944 61.312 22.144 128.448 15.04 190.272 34.624 12.16 4.096 26.112 10.368 29.824 23.744a47.552 47.552 0 0 1-12.928 45.44c-25.728 16-55.872 23.36-86.08 21.12z m279.296-405.376A433230.72 433230.72 0 0 0 539.712 10.624a80.512 80.512 0 0 0-78.528 0L103.552 212.608c-23.68 12.8-38.4 37.504-38.656 64.384v406.784c0.384 27.456 15.808 52.416 40.128 65.088 34.24 18.56 67.52 39.168 102.4 56.576 40.768 21.76 89.472 23.104 131.392 3.584 31.552-19.712 49.856-55.04 47.808-92.16 0.192-134.272 0-268.544 0.064-402.752a10.56 10.56 0 0 0-9.92-12.224 1994.624 1994.624 0 0 0-45.76 0 10.048 10.048 0 0 0-10.88 10.24c-0.256 133.376 0 266.752-0.128 400.192a45.12 45.12 0 0 1-29.312 42.368 73.536 73.536 0 0 1-59.52-7.936l-95.104-53.76a11.392 11.392 0 0 1-6.528-11.328v-402.56a12.416 12.416 0 0 1 7.552-12.48l356.416-200.96a12.352 12.352 0 0 1 14.016 0l356.48 200.96a12.544 12.544 0 0 1 7.424 12.416v402.624a11.648 11.648 0 0 1-6.4 11.456 220529.216 220529.216 0 0 1-351.232 198.208c-5.568 3.072-12.16 8.128-18.688 4.352-30.72-17.408-60.992-35.456-91.584-52.928a9.856 9.856 0 0 0-11.072-0.64c-13.44 7.808-27.648 14.464-42.304 19.712-6.656 2.688-14.784 3.456-19.392 9.6a63.168 63.168 0 0 0 20.736 14.912l107.328 62.08c24.128 15.104 54.528 15.936 79.488 2.176L896 748.8c24.256-12.672 39.68-37.632 40.128-65.024V276.992a73.92 73.92 0 0 0-37.376-63.616z" fill="#029A61" p-id="19188"></path></svg>