<?xml version="1.0" standalone="no"?><!DOCTYPE svg PUBLIC "-//W3C//DTD SVG 1.1//EN" "http://www.w3.org/Graphics/SVG/1.1/DTD/svg11.dtd"><svg t="1581403585222" class="icon" viewBox="0 0 1024 1024" version="1.1" xmlns="http://www.w3.org/2000/svg" p-id="4833" xmlns:xlink="http://www.w3.org/1999/xlink" width="128" height="128"><defs><style type="text/css"></style></defs><path d="M373.76 632.32h104.96V737.28c0 18.432 14.848 33.28 33.28 33.28s33.28-14.848 33.28-33.28v-104.96H650.24c18.432 0 33.28-14.848 33.28-33.28s-14.848-33.28-33.28-33.28h-104.96V460.8c0-18.432-14.848-33.28-33.28-33.28s-33.28 14.848-33.28 33.28v104.96H373.76c-18.432 0-33.28 14.848-33.28 33.28s14.848 33.28 33.28 33.28z" fill="#FA7268" p-id="4834"></path><path d="M851.968 243.2h-25.6V111.104l-2.048-5.632c-5.632-15.872-17.408-28.672-33.28-36.352-15.36-7.168-32.256-8.192-47.616-2.56L164.352 239.616l-2.048 1.024c-4.608 1.536-8.704 4.096-12.8 6.656-26.112 9.216-44.544 33.792-44.544 62.976v578.048c0 36.864 29.696 66.56 66.56 66.56h680.448c36.864 0 66.56-29.696 66.56-66.56v-578.56c0.512-36.864-29.696-66.56-66.56-66.56z m-92.16-111.616v111.104h-373.76l373.76-111.104z m92.16 756.736h-680.96v-578.56h680.96v578.56z" fill="#3E3A39" p-id="4835"></path></svg>
