<?xml version="1.0" standalone="no"?><!DOCTYPE svg PUBLIC "-//W3C//DTD SVG 1.1//EN" "http://www.w3.org/Graphics/SVG/1.1/DTD/svg11.dtd"><svg t="1581521984508" class="icon" viewBox="0 0 1024 1024" version="1.1" xmlns="http://www.w3.org/2000/svg" p-id="2120" xmlns:xlink="http://www.w3.org/1999/xlink" width="200" height="200"><defs><style type="text/css"></style></defs><path d="M638.72 839.6288c-8.6528 0-17.92-1.1264-27.648-3.4816-60.5696-14.3872-162.9184-82.7904-252.16-228.1472-111.3088-181.3504-117.76-345.3952-53.9648-384.8704 3.8912-2.4064 7.8336-4.9664 11.8784-7.6288 26.624-17.3568 59.6992-38.9632 96.6656-28.5184 25.5488 7.2192 46.1824 27.9552 62.976 63.488 45.8752 96.6656 12.4928 126.9248-35.9424 156.3648-1.7408 1.0752-3.5328 2.1504-5.3248 3.2768-0.8704 5.4784-0.9728 32.512 52.0192 118.8352 52.8384 85.9648 76.9536 98.304 82.3296 100.0448 1.7408-1.0752 3.4304-2.1504 5.12-3.2256 48.128-30.208 90.112-46.6432 155.648 38.144 24.0128 31.0784 33.1776 58.88 28.1088 84.9408-7.3728 37.7344-41.5232 57.6512-68.9152 73.6256-4.1472 2.4064-8.2432 4.8128-12.0832 7.168-10.8032 6.656-23.9104 9.984-38.7072 9.984zM393.984 235.52c-14.1312 0-32.6144 12.0832-49.2032 22.8864-4.4544 2.9184-8.7552 5.7344-12.9536 8.2944-25.7024 15.9232-32.8192 145.8688 70.7072 314.5216 75.8272 123.5456 165.3248 192.0512 220.3648 205.1072 18.176 4.3008 25.7024 0.8704 27.5968-0.3072 4.1984-2.56 8.6016-5.1712 13.1584-7.8336 19.456-11.3664 41.5232-24.2176 44.4416-39.2192 2.048-10.496-4.3008-25.6512-18.3808-43.8784-25.9584-33.5872-41.6256-41.6768-50.2272-42.496-9.472-0.9216-20.48 5.632-37.632 16.4352-2.3552 1.4848-4.7616 2.9696-7.168 4.5056-50.3296 30.9248-104.6528-42.24-151.1424-117.8624-43.7248-71.2704-87.4496-157.0304-36.864-188.2112 2.4064-1.4848 4.864-2.9696 7.2192-4.4544 17.3056-10.5472 28.1088-17.4592 31.5392-26.4192 4.4544-11.6224-0.8192-33.8432-15.2576-64.3072-9.8304-20.7872-20.4288-33.28-30.6176-36.1472-1.7408-0.3584-3.6352-0.6144-5.5808-0.6144z m39.6288 175.5648z" p-id="2121"></path></svg>
