<?xml version="1.0" standalone="no"?><!DOCTYPE svg PUBLIC "-//W3C//DTD SVG 1.1//EN" "http://www.w3.org/Graphics/SVG/1.1/DTD/svg11.dtd"><svg t="1648894772499" class="icon" viewBox="0 0 1024 1024" version="1.1" xmlns="http://www.w3.org/2000/svg" p-id="20620" xmlns:xlink="http://www.w3.org/1999/xlink" width="200" height="200"><defs><style type="text/css">@font-face { font-family: feedback-iconfont; src: url("//at.alicdn.com/t/font_1031158_u69w8yhxdu.woff2?t=1630033759944") format("woff2"), url("//at.alicdn.com/t/font_1031158_u69w8yhxdu.woff?t=1630033759944") format("woff"), url("//at.alicdn.com/t/font_1031158_u69w8yhxdu.ttf?t=1630033759944") format("truetype"); }
</style></defs><path d="M441.250909 23.272727c46.08 0 90.205091 23.738182 117.853091 63.488l46.917818 67.397818h247.389091c81.314909 0 147.409455 71.354182 147.316364 158.999273v528.523637c0 87.784727-66.187636 159.045818-147.409455 159.045818H170.682182c-81.221818 0-147.409455-71.261091-147.409455-159.045818V182.318545C23.272727 94.487273 89.460364 23.272727 170.682182 23.272727h270.568727z m210.385455 605.090909H372.363636c-31.045818 0-46.545455 15.499636-46.545454 46.545455l0.232727 6.423273c2.048 26.763636 17.501091 40.122182 46.312727 40.122181h279.272728c31.045818 0 46.545455-15.499636 46.545454-46.545454l-0.232727-6.423273c-2.048-26.763636-17.501091-40.122182-46.312727-40.122182z m0-279.272727H372.363636a46.545455 46.545455 0 1 0 0 93.090909h279.272728a46.545455 46.545455 0 0 0 0-93.090909z" p-id="20621"></path></svg>