<?xml version="1.0" standalone="no"?><!DOCTYPE svg PUBLIC "-//W3C//DTD SVG 1.1//EN" "http://www.w3.org/Graphics/SVG/1.1/DTD/svg11.dtd"><svg t="1648894221151" class="icon" viewBox="0 0 1024 1024" version="1.1" xmlns="http://www.w3.org/2000/svg" p-id="7815" xmlns:xlink="http://www.w3.org/1999/xlink" width="200" height="200"><defs><style type="text/css">@font-face { font-family: feedback-iconfont; src: url("//at.alicdn.com/t/font_1031158_u69w8yhxdu.woff2?t=1630033759944") format("woff2"), url("//at.alicdn.com/t/font_1031158_u69w8yhxdu.woff?t=1630033759944") format("woff"), url("//at.alicdn.com/t/font_1031158_u69w8yhxdu.ttf?t=1630033759944") format("truetype"); }
</style></defs><path d="M921.088 0C977.846857 0 1024 46.08 1024 102.912v818.102857c0 56.758857-46.153143 102.985143-102.912 102.985143H102.912A103.058286 103.058286 0 0 1 0 921.014857V102.912C0 46.153143 46.153143 0 102.912 0h818.176zM289.792 522.020571a130.194286 130.194286 0 0 0-130.121143 130.048c0 71.753143 58.368 130.121143 130.121143 130.121143A130.194286 130.194286 0 0 0 419.84 652.068571a130.194286 130.194286 0 0 0-130.048-130.048z m0 199.168a69.12 69.12 0 0 1 0-138.166857 69.12 69.12 0 0 1 0 138.166857zM280.868571 420.498286a48.274286 48.274286 0 0 0 34.450286-14.116572l145.334857-145.334857a49.298286 49.298286 0 0 0 13.824-34.816 46.884571 46.884571 0 0 0-14.409143-33.718857 46.738286 46.738286 0 0 0-33.645714-14.336h-0.292571a49.883429 49.883429 0 0 0-34.596572 14.116571L280.868571 302.957714l-38.034285-38.034285a48.347429 48.347429 0 0 0-34.523429-14.189715 48.347429 48.347429 0 0 0-48.64 48.566857 48.713143 48.713143 0 0 0 14.189714 34.523429l72.557715 72.557714a48.347429 48.347429 0 0 0 34.377143 14.116572z m588.361143-44.836572a38.253714 38.253714 0 0 0 0-76.361143H578.706286a38.253714 38.253714 0 0 0 0 76.361143h290.523428zM582.802286 617.472a38.253714 38.253714 0 0 0 0 76.434286h286.427428a38.253714 38.253714 0 0 0 0-76.434286H582.802286z" p-id="7816"></path></svg>