<?xml version="1.0" standalone="no"?><!DOCTYPE svg PUBLIC "-//W3C//DTD SVG 1.1//EN" "http://www.w3.org/Graphics/SVG/1.1/DTD/svg11.dtd"><svg t="1555232632998" class="icon" style="" viewBox="0 0 1024 1024" version="1.1" xmlns="http://www.w3.org/2000/svg" p-id="2943" xmlns:xlink="http://www.w3.org/1999/xlink" width="50" height="50"><defs><style type="text/css"></style></defs><path d="M49.77 199.104h609.003c19.926 5.675 33.494 14.336 42.24 25.024 8.448 10.24 11.158 20.117 11.158 25.067v214.25l262.357-168.682v414.826L712.171 540.928v148.096a24.896 24.896 0 1 0 49.77 0v-62.443l262.379 174.187V203.605l-262.4 168.662V249.173c0-15.488-5.696-36.266-22.464-56.661-16-19.477-39.573-34.133-71.104-42.368l-3.093-0.81H0v608.96l0.768 3.029c2.987 11.669 9.173 27.989 19.69 44.629 18.731 29.653 44.907 48.725 79.147 49.067h637.44a24.896 24.896 0 0 0 0-49.771H99.84c-14.4-0.15-26.752-9.13-37.333-25.877a120.213 120.213 0 0 1-12.758-27.691V199.104z" fill="" p-id="2944"></path><path d="M205.91 324.48a46.507 46.507 0 1 1-92.993-0.043 46.507 46.507 0 0 1 92.992 0.022z" fill="" p-id="2945"></path></svg>